<svg width="32" height="32" viewBox="0 0 32 32" fill="none" xmlns="http://www.w3.org/2000/svg">
<path d="M14.1998 21.2002C14.4998 20.9002 14.4998 20.4002 14.1998 20.1002L10.8998 16.8002H22.9998C23.3998 16.8002 23.7998 16.4002 23.7998 16.0002C23.7998 15.5002 23.3998 15.2002 22.9998 15.2002H10.8998L14.1998 11.9002C14.4998 11.6002 14.4998 11.1002 14.1998 10.8002C13.8998 10.5002 13.3998 10.5002 13.0998 10.8002L8.4998 15.4002C8.2998 15.6002 8.2998 15.8002 8.2998 16.0002C8.2998 16.2002 8.3998 16.4002 8.4998 16.6002L13.0998 21.2002C13.2998 21.4002 13.4998 21.4002 13.6998 21.4002C13.8998 21.4002 14.0998 21.3002 14.1998 21.2002Z" fill="#000"/>
</svg>
