<svg width="60" height="60" viewBox="0 0 60 60" fill="none" xmlns="http://www.w3.org/2000/svg">
<path d="M46.5586 25.5079C44.9766 17.4395 38.2266 11.25 30 11.25C23.4609 11.25 17.8711 15.1184 15.0234 20.8658C8.27344 21.5289 3 27.6079 3 34.9026C3 42.6395 9.01172 49.05 16.5 49.05H45.7148C51.9375 49.05 57 43.7447 57 37.2237C57 31.0342 52.3594 25.95 46.5586 25.5079ZM45.7148 44.2974H16.5C11.543 44.2974 7.53516 40.0974 7.53516 34.9026C7.53516 30.0395 10.9102 25.95 15.5508 25.5079L17.8711 25.2868L19.0312 22.9658C21.1406 18.6553 25.3594 16.0026 30 16.0026C35.9062 16.0026 40.9688 20.4237 42.1289 26.5026L42.7617 30.0395L46.2422 30.2605C49.7227 30.4816 52.4648 33.5763 52.4648 37.2237C52.4648 41.0921 49.5117 44.2974 45.7148 44.2974ZM21.0352 32.4711H26.7305V39.5447H33.2695V32.4711H38.9648L30 23.0763L21.0352 32.4711Z" fill="white"/>
</svg>
